<svg width="50" height="50" viewBox="0 0 50 50" fill="none" xmlns="http://www.w3.org/2000/svg">
<rect x="0.5" y="49.5" width="49" height="49" transform="rotate(-90 0.5 49.5)" fill="#111111" stroke="white"/>
<path d="M23.875 19.9843C21.2969 22.5624 18.7187 25.1405 16.1406 27.7187C15.7656 28.0937 15.3906 28.4687 15.0156 28.8437C14.1719 29.6874 15.4844 31.0468 16.3281 30.1562C18.9062 27.578 21.4844 24.9999 24.0625 22.4218C24.2031 22.2812 24.3437 22.1405 24.4844 21.9999C26.8281 24.3437 29.1719 26.6874 31.5156 29.0312C31.8906 29.4062 32.2187 29.7343 32.5937 30.1093C33.4375 30.953 34.7969 29.6405 33.9062 28.7968L26.2187 21.1093L25.1406 20.0312C24.8594 19.6093 24.25 19.6093 23.875 19.9843Z" fill="white"/>
</svg>
