<svg width="112" height="23" viewBox="0 0 112 23" fill="none" xmlns="http://www.w3.org/2000/svg">
<g clip-path="url(#clip0_2016_2259)">
<path d="M21.1135 22.2708C19.3023 22.2708 17.5622 22.2919 15.8235 22.2498C15.546 22.2428 15.2072 22.0169 15.012 21.791C12.3712 18.7314 9.75267 15.652 7.12302 12.5825C6.86507 12.2823 6.57645 12.0087 6.15258 11.5668V22.1979H0.000915527V0.324143C1.85813 0.324143 3.70279 0.307308 5.54745 0.346589C5.7566 0.350797 5.98666 0.651014 6.15955 0.855835C8.86729 4.06984 11.5653 7.29086 14.2702 10.5063C14.4333 10.6999 14.6383 10.8584 14.9966 11.1951V0.384467H21.1135V22.2708Z" fill="black"/>
<path d="M49.5643 8.55899V13.6865H39.6801V17.1067H51.3448V22.2048H32.8856V0.375977H51.2597V5.42074H39.6982V8.55758H49.5629L49.5643 8.55899Z" fill="black"/>
<path d="M83.3227 22.2694C80.6833 22.2694 78.2029 22.2848 75.7224 22.2456C75.4714 22.2413 75.1396 21.951 74.9904 21.7054C73.8303 19.7849 72.7065 17.8419 71.566 15.9101C71.4586 15.7292 71.3094 15.572 71.0808 15.276C70.2846 16.6228 69.5568 17.8447 68.8415 19.0736C68.4525 19.7428 68.0607 20.4134 67.7149 21.105C67.2757 21.9874 66.6803 22.3648 65.6179 22.3045C63.631 22.1894 61.633 22.2722 59.4788 22.2722C60.2624 21.0559 60.9567 19.9476 61.6832 18.8618C63.3535 16.3619 65.0211 13.8605 66.7319 11.3901C67.1223 10.8247 67.0289 10.4361 66.6775 9.92264C64.5359 6.78299 62.4193 3.6251 60.1926 0.321314C61.1338 0.321314 61.9453 0.321314 62.7568 0.321314C64.4118 0.321314 66.0682 0.321314 67.7233 0.321314C68.083 0.321314 68.3354 0.32412 68.5696 0.781459C69.4006 2.39758 70.3501 3.95338 71.2634 5.52601C71.3722 5.71259 71.5409 5.8627 71.7486 6.10961C71.9452 5.84166 72.1362 5.62281 72.2826 5.3773C73.1764 3.88043 74.045 2.36812 74.9597 0.88387C75.1117 0.638365 75.4435 0.349372 75.6973 0.345163C77.9491 0.303077 80.2037 0.321314 82.6716 0.321314C82.2533 0.969446 81.9229 1.48991 81.584 2.00337C79.7951 4.70953 78.016 7.4227 76.202 10.112C75.8772 10.5932 75.8437 10.9299 76.1811 11.4265C78.4845 14.8103 80.7572 18.2151 83.0341 21.6171C83.1359 21.7686 83.1847 21.9566 83.3213 22.2736L83.3227 22.2694Z" fill="black"/>
<path d="M98.2794 22.2708V5.80656C96.2716 5.80656 94.3391 5.80656 92.408 5.80656C91.5807 5.80656 91.1666 5.40393 91.1657 4.59867C91.1657 3.42727 91.1741 2.25586 91.1615 1.08586C91.1559 0.563986 91.3274 0.308661 91.9047 0.310064C98.4677 0.325496 105.031 0.321287 111.594 0.325496C111.701 0.325496 111.81 0.357762 111.956 0.381611V5.77289H105.078C105.078 6.18393 105.078 6.5108 105.078 6.83767C105.078 11.693 105.064 16.5498 105.093 21.4052C105.098 22.087 104.898 22.296 104.228 22.2834C102.291 22.2469 100.354 22.2708 98.278 22.2708H98.2794Z" fill="black"/>
</g>
<defs>
<clipPath id="clip0_2016_2259">
<rect width="111.956" height="22" fill="white" transform="translate(0 0.310059)"/>
</clipPath>
</defs>
</svg>
