<svg width="83" height="16" viewBox="0 0 83 16" fill="none" xmlns="http://www.w3.org/2000/svg">
<g clip-path="url(#clip0_2016_2222)">
<path d="M15.6528 15.9717C14.31 15.9717 13.02 15.987 11.731 15.9563C11.5253 15.9512 11.2741 15.787 11.1294 15.6227C9.17155 13.3975 7.23029 11.158 5.28075 8.92561C5.08952 8.70727 4.87555 8.50832 4.5613 8.18693V15.9186H0.000671387V0.0104205C1.37754 0.0104205 2.74511 -0.00182279 4.11268 0.026745C4.26774 0.0298058 4.4383 0.248145 4.56647 0.397106C6.5739 2.73456 8.57408 5.07712 10.5794 7.4156C10.7004 7.5564 10.8523 7.67169 11.118 7.91655V0.0542925H15.6528V15.9717Z" fill="white" fill-opacity="0.3"/>
<path d="M36.7452 5.99913V9.72825H29.4174V12.2157H38.0652V15.9234H24.3802V0.0478516H38.0022V3.71677H29.4308V5.99811H36.7442L36.7452 5.99913Z" fill="white" fill-opacity="0.3"/>
<path d="M61.7726 15.9705C59.8158 15.9705 57.9769 15.9817 56.1379 15.9531C55.9519 15.9501 55.7058 15.7389 55.5952 15.5603C54.7352 14.1636 53.9021 12.7505 53.0565 11.3456C52.9769 11.2139 52.8663 11.0997 52.6968 10.8844C52.1065 11.8639 51.567 12.7525 51.0367 13.6463C50.7483 14.133 50.4578 14.6207 50.2015 15.1236C49.8758 15.7654 49.4345 16.0399 48.6468 15.996C47.1738 15.9123 45.6925 15.9725 44.0955 15.9725C44.6764 15.0879 45.1912 14.2819 45.7297 13.4922C46.9681 11.6741 48.2044 9.85493 49.4727 8.05822C49.7621 7.64705 49.6929 7.36443 49.4324 6.99101C47.8446 4.70763 46.2755 2.41098 44.6247 0.00823021C45.3224 0.00823021 45.9241 0.00823021 46.5257 0.00823021C47.7526 0.00823021 48.9807 0.00823021 50.2077 0.00823021C50.4743 0.00823021 50.6614 0.0102708 50.8351 0.342881C51.4512 1.51824 52.1551 2.64973 52.8322 3.79346C52.9128 3.92916 53.0379 4.03833 53.1919 4.2179C53.3377 4.02302 53.4793 3.86386 53.5878 3.68531C54.2504 2.59668 54.8944 1.49682 55.5725 0.417362C55.6852 0.238813 55.9312 0.0286358 56.1193 0.0255749C57.7887 -0.0050334 59.4602 0.00823021 61.2898 0.00823021C60.9797 0.479599 60.7347 0.858122 60.4836 1.23154C59.1573 3.19966 57.8383 5.17288 56.4935 7.12875C56.2527 7.4787 56.2279 7.72357 56.478 8.08475C58.1857 10.5457 59.8706 13.0219 61.5586 15.496C61.6341 15.6062 61.6702 15.743 61.7715 15.9735L61.7726 15.9705Z" fill="white" fill-opacity="0.3"/>
<path d="M72.861 15.9714V3.99745C71.3725 3.99745 69.9398 3.99745 68.5081 3.99745C67.8948 3.99745 67.5878 3.70463 67.5871 3.11899C67.5871 2.26706 67.5933 1.41513 67.584 0.564218C67.5799 0.184675 67.707 -0.0010161 68.135 4.18132e-06C73.0005 0.0112272 77.8661 0.0081664 82.7317 0.0112272C82.8113 0.0112272 82.8919 0.0346936 83.0004 0.0520384V3.97297H77.9013C77.9013 4.27191 77.9013 4.50963 77.9013 4.74736C77.9013 8.27854 77.8909 11.8107 77.9126 15.3419C77.9157 15.8378 77.7679 15.9898 77.2707 15.9806C75.8349 15.9541 74.3991 15.9714 72.86 15.9714H72.861Z" fill="white" fill-opacity="0.3"/>
</g>
<defs>
<clipPath id="clip0_2016_2222">
<rect width="83" height="16" fill="white"/>
</clipPath>
</defs>
</svg>
