<svg width="57" height="81" viewBox="0 0 57 81" fill="none" xmlns="http://www.w3.org/2000/svg">
<g filter="url(#filter0_d_2016_2241)">
<path d="M34.9884 27.375C34.9884 26.0771 34.6036 24.8083 33.8825 23.7291C33.1614 22.6499 32.1364 21.8087 30.9373 21.312C29.7382 20.8153 28.4187 20.6854 27.1457 20.9386C25.8727 21.1918 24.7033 21.8168 23.7856 22.7346C22.8678 23.6524 22.2428 24.8217 21.9895 26.0947C21.7363 27.3677 21.8663 28.6872 22.363 29.8864C22.8597 31.0855 23.7008 32.1104 24.78 32.8315C25.8592 33.5526 27.128 33.9375 28.4259 33.9375C30.1658 33.9354 31.8338 33.2433 33.064 32.0131C34.2943 30.7828 34.9863 29.1148 34.9884 27.375ZM23.7384 27.375C23.7384 26.4479 24.0134 25.5416 24.5284 24.7708C25.0435 23.9999 25.7756 23.3991 26.6321 23.0443C27.4886 22.6895 28.4311 22.5967 29.3404 22.7776C30.2497 22.9584 31.0849 23.4049 31.7405 24.0604C32.3961 24.716 32.8425 25.5512 33.0234 26.4605C33.2042 27.3698 33.1114 28.3123 32.7566 29.1688C32.4018 30.0254 31.801 30.7574 31.0302 31.2725C30.2593 31.7876 29.353 32.0625 28.4259 32.0625C27.1831 32.0614 25.9915 31.5671 25.1126 30.6883C24.2338 29.8095 23.7396 28.6179 23.7384 27.375ZM36.5888 51.0872C36.6759 51.1742 36.7449 51.2775 36.792 51.3912C36.8392 51.505 36.8634 51.6269 36.8634 51.75C36.8634 51.8731 36.8392 51.995 36.792 52.1087C36.7449 52.2224 36.6759 52.3258 36.5888 52.4128L29.0888 59.9128C29.0018 59.9998 28.8984 60.0689 28.7847 60.116C28.671 60.1631 28.5491 60.1874 28.426 60.1874C28.3029 60.1874 28.181 60.1631 28.0673 60.116C27.9535 60.0689 27.8502 59.9998 27.7632 59.9128L20.2632 52.4128C20.0924 52.236 19.9979 51.9992 20 51.7533C20.0022 51.5075 20.1008 51.2724 20.2746 51.0986C20.4484 50.9248 20.6835 50.8262 20.9294 50.824C21.1752 50.8219 21.412 50.9164 21.5888 51.0872L27.4884 56.9869V40.5C27.4884 40.2514 27.5872 40.0129 27.763 39.8371C27.9388 39.6613 28.1773 39.5625 28.4259 39.5625C28.6746 39.5625 28.913 39.6613 29.0889 39.8371C29.2647 40.0129 29.3634 40.2514 29.3634 40.5V56.9869L35.2631 51.0872C35.3501 51.0001 35.4535 50.9311 35.5672 50.8839C35.6809 50.8368 35.8028 50.8125 35.9259 50.8125C36.049 50.8125 36.1709 50.8368 36.2847 50.8839C36.3984 50.931 36.5018 51.0001 36.5888 51.0872Z" fill="#111111"/>
</g>
<defs>
<filter id="filter0_d_2016_2241" x="0" y="0.8125" width="56.8634" height="79.375" filterUnits="userSpaceOnUse" color-interpolation-filters="sRGB">
<feFlood flood-opacity="0" result="BackgroundImageFix"/>
<feColorMatrix in="SourceAlpha" type="matrix" values="0 0 0 0 0 0 0 0 0 0 0 0 0 0 0 0 0 0 127 0" result="hardAlpha"/>
<feOffset/>
<feGaussianBlur stdDeviation="10"/>
<feComposite in2="hardAlpha" operator="out"/>
<feColorMatrix type="matrix" values="0 0 0 0 0 0 0 0 0 0 0 0 0 0 0 0 0 0 0.2 0"/>
<feBlend mode="normal" in2="BackgroundImageFix" result="effect1_dropShadow_2016_2241"/>
<feBlend mode="normal" in="SourceGraphic" in2="effect1_dropShadow_2016_2241" result="shape"/>
</filter>
</defs>
</svg>
