<svg xmlns="http://www.w3.org/2000/svg" width="112" height="23" fill="none"><g fill="#000" clip-path="url(#a)"><path d="M21.113 22.27c-1.81 0-3.55.022-5.29-.02-.277-.007-.616-.233-.811-.459-2.64-3.06-5.26-6.139-7.889-9.209-.258-.3-.547-.573-.97-1.015v10.63H0V.325c1.857 0 3.702-.017 5.546.023.21.004.44.304.613.509 2.707 3.214 5.405 6.435 8.11 9.65.163.194.368.352.727.69V.383h6.116v21.887ZM49.564 8.559v5.128H39.68v3.42h11.665v5.098h-18.46V.376H51.26v5.045H39.698v3.137h9.865l.001.001ZM83.323 22.27c-2.64 0-5.12.015-7.6-.024-.252-.005-.583-.295-.733-.54-1.16-1.921-2.283-3.864-3.424-5.796-.107-.18-.257-.338-.485-.634-.796 1.347-1.524 2.569-2.24 3.798-.388.669-.78 1.34-1.126 2.031-.44.882-1.035 1.26-2.097 1.2-1.987-.116-3.985-.033-6.14-.033.784-1.216 1.479-2.324 2.205-3.41 1.67-2.5 3.338-5.001 5.049-7.472.39-.565.297-.954-.055-1.467-2.141-3.14-4.258-6.298-6.484-9.602h7.53c.36 0 .612.003.847.46.83 1.617 1.78 3.172 2.693 4.745.11.187.278.337.486.584.196-.268.387-.487.534-.733.893-1.497 1.762-3.009 2.677-4.493.152-.246.484-.535.737-.539C77.95.303 80.204.321 82.672.321c-.419.648-.75 1.169-1.088 1.682-1.789 2.707-3.568 5.42-5.382 8.109-.325.481-.358.818-.02 1.315 2.302 3.383 4.575 6.788 6.852 10.19.102.152.15.34.287.657l.002-.005ZM98.28 22.27V5.808h-5.872c-.827 0-1.241-.403-1.242-1.208 0-1.172.008-2.343-.004-3.513-.006-.522.165-.777.743-.776 6.563.015 13.126.011 19.689.015.107 0 .216.033.362.057v5.39h-6.878v1.066c0 4.855-.014 9.712.015 14.567.005.682-.195.891-.865.878-1.937-.036-3.874-.012-5.95-.012h.001Z"/></g><defs><clipPath id="a"><path fill="#fff" d="M0 .31h111.956v22H0z"/></clipPath></defs></svg>