<svg xmlns="http://www.w3.org/2000/svg" width="57" height="80" fill="none"><g filter="url(#a)"><path fill="#777" d="M34.988 26.563a6.562 6.562 0 1 0-6.562 6.562 6.57 6.57 0 0 0 6.562-6.563Zm-11.25 0a4.688 4.688 0 1 1 9.376 0 4.688 4.688 0 0 1-9.376 0Zm12.85 23.712a.936.936 0 0 1 0 1.325l-7.5 7.5a.938.938 0 0 1-1.325 0l-7.5-7.5a.938.938 0 0 1 1.326-1.325l5.9 5.9V39.687a.938.938 0 0 1 1.874 0v16.486l5.9-5.9a.938.938 0 0 1 1.326 0Z"/></g><defs><filter id="a" width="56.863" height="79.375" x="0" y="0" color-interpolation-filters="sRGB" filterUnits="userSpaceOnUse"><feFlood flood-opacity="0" result="BackgroundImageFix"/><feColorMatrix in="SourceAlpha" result="hardAlpha" values="0 0 0 0 0 0 0 0 0 0 0 0 0 0 0 0 0 0 127 0"/><feOffset/><feGaussianBlur stdDeviation="10"/><feComposite in2="hardAlpha" operator="out"/><feColorMatrix values="0 0 0 0 0 0 0 0 0 0 0 0 0 0 0 0 0 0 0.2 0"/><feBlend in2="BackgroundImageFix" result="effect1_dropShadow_2119_31"/><feBlend in="SourceGraphic" in2="effect1_dropShadow_2119_31" result="shape"/></filter></defs></svg>